<svg width="145" height="32" viewBox="0 0 145 32" fill="none" xmlns="http://www.w3.org/2000/svg">
<path d="M19.7229 0.0175829H17.0553C14.8692 0.0171661 12.7035 0.440139 10.6773 1.26327C10.9604 1.35734 11.2418 1.45725 11.5209 1.5671C11.9974 1.78562 12.4967 1.9609 12.9482 2.24253C13.1765 2.37633 13.4142 2.49494 13.6362 2.64159L14.2933 3.10025C15.138 3.75698 15.8925 4.56096 16.4418 5.50925C16.9781 6.4622 17.3008 7.52097 17.3873 8.61178C17.4625 9.68034 17.3627 10.754 17.092 11.7903C16.563 13.8152 15.6018 15.7008 14.2747 17.3164C15.2569 15.5121 16.0224 13.6004 16.3894 11.6372C16.7494 9.68686 16.6224 7.63252 15.6402 5.96966C15.1707 5.13297 14.5077 4.41138 13.7533 3.79146C13.0018 3.15926 12.1221 2.68833 11.2325 2.23084C9.41955 1.37078 7.45047 0.815711 5.46217 0.309724C5.46217 0.309724 1.98598 5.80956 0.626848 12.5154H0.631509C0.212791 14.0152 0.000325882 15.5655 4.7137e-06 17.123V18.6562C-0.00183345 21.1328 0.533961 23.5801 1.57017 25.8281C2.60637 28.0761 4.11815 30.0709 6.00046 31.674H11.4259C10.2864 30.7882 9.18303 29.4671 9.18303 27.6652C9.18303 23.9375 14.2776 21.2153 14.2776 21.2153V31.674H20.6981C20.8833 30.5913 21.6139 29.7826 22.4883 29.7826C23.3627 29.7826 24.0933 30.5913 24.2785 31.674H30.7806C32.6624 30.0707 34.1736 28.0757 35.2093 25.8277C36.245 23.5797 36.7803 21.1326 36.7781 18.6562V17.1224C36.7781 7.67576 29.1424 0.0175829 19.7229 0.0175829Z" fill="white"/>
<path d="M19.7229 0.0175829H17.0553C14.8692 0.0171661 12.7035 0.440139 10.6773 1.26327C10.9604 1.35734 11.2418 1.45725 11.5209 1.5671C11.9974 1.78562 12.4967 1.9609 12.9482 2.24253C13.1765 2.37633 13.4142 2.49494 13.6362 2.64159L14.2933 3.10025C15.138 3.75698 15.8925 4.56096 16.4418 5.50925C16.9781 6.4622 17.3008 7.52097 17.3873 8.61178C17.4625 9.68034 17.3627 10.754 17.092 11.7903C16.563 13.8152 15.6018 15.7008 14.2747 17.3164C15.2569 15.5121 16.0224 13.6004 16.3894 11.6372C16.7494 9.68686 16.6224 7.63252 15.6402 5.96966C15.1707 5.13297 14.5077 4.41138 13.7533 3.79146C13.0018 3.15926 12.1221 2.68833 11.2325 2.23084C9.41955 1.37078 7.45047 0.815711 5.46217 0.309724C5.46217 0.309724 1.98598 5.80956 0.626848 12.5154H0.631509C0.212791 14.0152 0.000325882 15.5655 4.7137e-06 17.123V18.6562C-0.00183345 21.1328 0.533961 23.5801 1.57017 25.8281C2.60637 28.0761 4.11815 30.0709 6.00046 31.674H11.4259C10.2864 30.7882 9.18303 29.4671 9.18303 27.6652C9.18303 23.9375 14.2776 21.2153 14.2776 21.2153V31.674H20.6981C20.8833 30.5913 21.6139 29.7826 22.4883 29.7826C23.3627 29.7826 24.0933 30.5913 24.2785 31.674H30.7806C32.6624 30.0707 34.1736 28.0757 35.2093 25.8277C36.245 23.5797 36.7803 21.1326 36.7781 18.6562V17.1224C36.7781 7.67576 29.1424 0.0175829 19.7229 0.0175829Z" fill="white"/>
<path d="M47.3366 8.86705L47.5847 10.5749L47.9482 9.03591L50.5022 0H51.9388L54.4311 9.03591L54.7853 10.6012L55.0608 8.85829L57.0643 0H58.7759L55.6434 12.9494H54.0938L51.4338 3.5127L51.2293 2.52585L51.0254 3.5127L48.2675 12.9494H46.7161L43.5947 0H45.297L47.3366 8.86705Z" fill="white"/>
<path d="M68.0522 6.96405H62.4595V11.553H68.9598V12.9494H60.7572V0H68.8678V1.39643H62.4595V5.5682H68.0522V6.96405Z" fill="white"/>
<path d="M71.1687 12.9494V0H75.3924C76.7937 0 77.8475 0.290388 78.554 0.871163C79.2605 1.45194 79.6137 2.31181 79.6137 3.45076C79.6225 4.0279 79.4418 4.59191 79.0993 5.05578C78.7567 5.52321 78.2907 5.88352 77.7011 6.13671C78.4002 6.33147 78.9515 6.70346 79.355 7.25268C79.7586 7.80191 79.9611 8.45552 79.9627 9.21353C79.9627 10.3763 79.5871 11.2895 78.836 11.9532C78.0848 12.617 77.0238 12.949 75.6528 12.9494H71.1687ZM72.871 5.52263H75.4431C76.1876 5.52263 76.7832 5.33566 77.2298 4.96172C77.6765 4.58778 77.8998 4.07965 77.8998 3.43733C77.8998 2.72372 77.6928 2.20527 77.2787 1.88197C76.8647 1.55867 76.2359 1.39682 75.3924 1.39643H72.8739L72.871 5.52263ZM72.871 6.89276V11.553H75.6837C76.476 11.553 77.1011 11.3469 77.559 10.9348C78.0169 10.5227 78.2462 9.95498 78.247 9.23164C78.247 7.67356 77.4015 6.89452 75.7105 6.89452L72.871 6.89276Z" fill="white"/>
<path d="M84.7649 0L88.9862 10.5656L93.2075 0H95.4154V12.9494H93.7132V7.90532L93.8722 2.46216L89.6334 12.9483H88.3302L84.1002 2.48962L84.2686 7.90591V12.9488H82.5663V0H84.7649Z" fill="white"/>
<path d="M105.803 9.56059H100.394L99.1783 12.9494H97.4225L102.353 0H103.843L108.783 12.9494H107.035L105.803 9.56059ZM100.909 8.16475H105.299L103.1 2.1075L100.909 8.16475Z" fill="white"/>
<path d="M115.345 7.71076H112.313V12.9494H110.601V0H114.876C116.33 0 117.449 0.331093 118.233 0.993278C119.016 1.65546 119.408 2.62206 119.407 3.89307C119.407 4.69937 119.19 5.40187 118.756 6.00057C118.323 6.59926 117.718 7.04721 116.943 7.34441L119.972 12.8407V12.9477H118.146L115.345 7.71076ZM112.313 6.31433H114.929C115.774 6.31433 116.447 6.09464 116.947 5.65526C117.447 5.21588 117.697 4.6277 117.695 3.89073C117.695 3.08909 117.458 2.47443 116.982 2.04674C116.507 1.61904 115.819 1.40228 114.92 1.39643H112.313V6.31433Z" fill="white"/>
<path d="M130.096 1.39643H125.945V12.9494H124.251V1.39643H120.109V0H130.096V1.39643Z" fill="white"/>
<path d="M46.1879 26.822V31.8311H45.149V19.5322H49.3387C50.617 19.5322 51.625 19.8588 52.3627 20.5121C53.1061 21.1653 53.4777 22.0635 53.4777 23.2067C53.4777 24.3611 53.1201 25.2537 52.405 25.8844C51.6954 26.5094 50.6649 26.822 49.3133 26.822H46.1879ZM46.1879 25.9435H49.3387C50.3467 25.9435 51.1154 25.7042 51.6447 25.2255C52.1741 24.7468 52.4387 24.0795 52.4387 23.2236C52.4387 22.3732 52.1741 21.6975 51.6447 21.1963C51.121 20.6894 50.3749 20.4304 49.4063 20.4191H46.1879V25.9435Z" fill="white"/>
<path d="M59.9718 26.7122H56.3987V31.8311H55.3513V19.5322H59.3467C60.6588 19.5322 61.6837 19.8504 62.4214 20.4867C63.1591 21.1231 63.528 22.0128 63.528 23.156C63.528 23.9444 63.2971 24.6398 62.8353 25.2424C62.3736 25.8449 61.7541 26.2617 60.977 26.4925L64.0517 31.7212V31.8311H62.9451L59.9718 26.7122ZM56.3987 25.8252H59.5832C60.4561 25.8252 61.1572 25.5775 61.6865 25.0819C62.2159 24.5863 62.4806 23.9444 62.4806 23.156C62.4806 22.2887 62.2046 21.6158 61.6527 21.1371C61.1009 20.6585 60.3266 20.4191 59.3298 20.4191H56.3987V25.8252Z" fill="white"/>
<path d="M75.0142 26.3489C75.0142 27.4808 74.8171 28.4748 74.4229 29.3307C74.0344 30.1867 73.4769 30.8456 72.7504 31.3073C72.024 31.7691 71.1849 32 70.2332 32C68.7972 32 67.6372 31.4875 66.7531 30.4626C65.8689 29.4321 65.4269 28.044 65.4269 26.2983V25.0312C65.4269 23.9106 65.624 22.9195 66.0182 22.0579C66.418 21.1906 66.9811 20.5261 67.7076 20.0644C68.434 19.597 69.2703 19.3633 70.2163 19.3633C71.1624 19.3633 71.9958 19.5913 72.7166 20.0475C73.4431 20.5036 74.0034 21.1484 74.3976 21.9818C74.7918 22.8153 74.9973 23.7811 75.0142 24.8792V26.3489ZM73.9753 25.0143C73.9753 23.5333 73.6402 22.3732 72.9701 21.5341C72.2999 20.6951 71.382 20.2755 70.2163 20.2755C69.0732 20.2755 68.1609 20.6979 67.4795 21.5426C66.8037 22.3817 66.4659 23.5558 66.4659 25.065V26.3489C66.4659 27.8075 66.8037 28.9647 67.4795 29.8207C68.1553 30.671 69.0732 31.0962 70.2332 31.0962C71.4102 31.0962 72.3281 30.6766 72.987 29.8376C73.6458 28.9929 73.9753 27.8187 73.9753 26.3152V25.0143Z" fill="white"/>
<path d="M77.2003 31.8311V19.5322H80.6383C81.6463 19.5322 82.5501 19.7631 83.3498 20.2249C84.1494 20.681 84.7717 21.3371 85.2165 22.193C85.6671 23.049 85.8923 24.0232 85.8923 25.1157V26.2476C85.8923 27.3457 85.6699 28.3199 85.225 29.1703C84.7801 30.0206 84.1522 30.6766 83.3413 31.1384C82.536 31.6002 81.6097 31.8311 80.5622 31.8311H77.2003ZM78.2393 20.4191V30.9526H80.5707C81.8659 30.9526 82.9049 30.5246 83.6876 29.6686C84.4704 28.807 84.8618 27.6442 84.8618 26.18V25.0988C84.8618 23.6853 84.476 22.5534 83.7045 21.7031C82.933 20.8528 81.9166 20.4248 80.6552 20.4191H78.2393Z" fill="white"/>
<path d="M96.5761 19.5322V27.9285C96.5705 28.7563 96.3874 29.4772 96.027 30.091C95.6666 30.7048 95.157 31.1778 94.4981 31.5101C93.8449 31.8367 93.0931 32 92.2428 32C90.9476 32 89.9086 31.648 89.1258 30.9441C88.3487 30.2346 87.9461 29.2547 87.9179 28.0046V19.5322H88.9484V27.8525C88.9484 28.8887 89.2441 29.694 89.8354 30.2684C90.4267 30.8371 91.2291 31.1215 92.2428 31.1215C93.2564 31.1215 94.0561 30.8343 94.6417 30.2599C95.233 29.6855 95.5287 28.8859 95.5287 27.861V19.5322H96.5761Z" fill="white"/>
<path d="M107.75 27.9961C107.609 29.2913 107.144 30.2824 106.356 30.9695C105.573 31.6565 104.529 32 103.222 32C102.31 32 101.502 31.7719 100.798 31.3158C100.1 30.8597 99.559 30.2149 99.1761 29.3814C98.7932 28.5424 98.5989 27.585 98.5932 26.5094V24.913C98.5932 23.8205 98.7847 22.8519 99.1676 22.0072C99.5506 21.1625 100.1 20.5121 100.815 20.0559C101.536 19.5941 102.363 19.3633 103.298 19.3633C104.616 19.3633 105.655 19.7209 106.415 20.436C107.181 21.1456 107.626 22.1283 107.75 23.384H106.702C106.443 21.2948 105.309 20.2502 103.298 20.2502C102.183 20.2502 101.293 20.6669 100.629 21.5004C99.9701 22.3338 99.6407 23.4854 99.6407 24.9552V26.4588C99.6407 27.8779 99.9617 29.0098 100.604 29.8545C101.251 30.6992 102.124 31.1215 103.222 31.1215C104.309 31.1215 105.128 30.8625 105.68 30.3444C106.232 29.8207 106.573 29.0379 106.702 27.9961H107.75Z" fill="white"/>
<path d="M117.935 20.4191H113.72V31.8311H112.681V20.4191H108.475V19.5322H117.935V20.4191Z" fill="white"/>
<path d="M120.763 31.8311H119.724V19.5322H120.763V31.8311Z" fill="white"/>
<path d="M132.765 26.3489C132.765 27.4808 132.568 28.4748 132.174 29.3307C131.785 30.1867 131.227 30.8456 130.501 31.3073C129.775 31.7691 128.935 32 127.984 32C126.548 32 125.388 31.4875 124.504 30.4626C123.619 29.4321 123.177 28.044 123.177 26.2983V25.0312C123.177 23.9106 123.375 22.9195 123.769 22.0579C124.169 21.1906 124.732 20.5261 125.458 20.0644C126.185 19.597 127.021 19.3633 127.967 19.3633C128.913 19.3633 129.746 19.5913 130.467 20.0475C131.194 20.5036 131.754 21.1484 132.148 21.9818C132.542 22.8153 132.748 23.7811 132.765 24.8792V26.3489ZM131.726 25.0143C131.726 23.5333 131.391 22.3732 130.721 21.5341C130.05 20.6951 129.133 20.2755 127.967 20.2755C126.824 20.2755 125.911 20.6979 125.23 21.5426C124.554 22.3817 124.216 23.5558 124.216 25.065V26.3489C124.216 27.8075 124.554 28.9647 125.23 29.8207C125.906 30.671 126.824 31.0962 127.984 31.0962C129.161 31.0962 130.079 30.6766 130.738 29.8376C131.396 28.9929 131.726 27.8187 131.726 26.3152V25.0143Z" fill="white"/>
<path d="M144.107 31.8311H143.068L135.998 21.3061V31.8311H134.951V19.5322H135.998L143.077 30.0656V19.5322H144.107V31.8311Z" fill="white"/>
</svg>
