<svg width="60" height="60" viewBox="0 0 60 60" fill="none" xmlns="http://www.w3.org/2000/svg">
<path d="M30.0176 5.4034C38.0379 5.4034 38.9877 5.43856 42.1419 5.57921C45.0733 5.70815 46.6562 6.20043 47.7116 6.61067C49.1069 7.14983 50.1153 7.80621 51.1589 8.84939C52.2142 9.90428 52.8591 10.9006 53.3985 12.2954C53.8089 13.3503 54.3013 14.9443 54.4303 17.8629C54.571 21.0275 54.6062 21.9769 54.6062 29.9824C54.6062 37.9996 54.571 38.949 54.4303 42.102C54.3013 45.0322 53.8089 46.6146 53.3985 47.6695C52.8591 49.0643 52.2025 50.0723 51.1589 51.1155C50.1036 52.1703 49.1069 52.815 47.7116 53.3542C46.6562 53.7644 45.0616 54.2567 42.1419 54.3856C38.976 54.5263 38.0262 54.5614 30.0176 54.5614C21.9973 54.5614 21.0475 54.5263 17.8933 54.3856C14.9619 54.2567 13.3789 53.7644 12.3236 53.3542C10.9283 52.815 9.91987 52.1586 8.87629 51.1155C7.82099 50.0606 7.17608 49.0643 6.6367 47.6695C6.2263 46.6146 5.73383 45.0205 5.60485 42.102C5.46414 38.9373 5.42896 37.9879 5.42896 29.9824C5.42896 21.9652 5.46414 21.0158 5.60485 17.8629C5.73383 14.9326 6.2263 13.3503 6.6367 12.2954C7.17608 10.9006 7.83271 9.89256 8.87629 8.84939C9.9316 7.79449 10.9283 7.14983 12.3236 6.61067C13.3789 6.20043 14.9736 5.70815 17.8933 5.57921C21.0475 5.43856 21.9973 5.4034 30.0176 5.4034ZM30.0176 0C21.8683 0 20.8482 0.0351631 17.6471 0.175816C14.4577 0.316468 12.265 0.832194 10.3654 1.57062C8.38382 2.34421 6.70706 3.36394 5.04202 5.04005C3.36525 6.70443 2.34512 8.38054 1.57123 10.3497C0.832519 12.2602 0.316592 14.4403 0.175884 17.6284C0.0351769 20.84 0 21.8597 0 30.0059C0 38.152 0.0351769 39.1717 0.175884 42.3716C0.316592 45.5597 0.832519 47.7515 1.57123 49.6503C2.34512 51.6312 3.36525 53.3073 5.04202 54.9717C6.70706 56.6361 8.38382 57.6675 10.3537 58.4294C12.265 59.1678 14.446 59.6835 17.6353 59.8242C20.8364 59.9648 21.8566 60 30.0059 60C38.1552 60 39.1753 59.9648 42.3764 59.8242C45.5658 59.6835 47.7585 59.1678 49.658 58.4294C51.6279 57.6675 53.3047 56.6361 54.9697 54.9717C56.6347 53.3073 57.6666 51.6312 58.4288 49.662C59.1675 47.7515 59.6834 45.5714 59.8241 42.3833C59.9648 39.1834 60 38.1637 60 30.0176C60 21.8715 59.9648 20.8517 59.8241 17.6519C59.6834 14.4638 59.1675 12.2719 58.4288 10.3731C57.6901 8.38054 56.6699 6.70443 54.9932 5.04005C53.3281 3.37566 51.6514 2.34421 49.6815 1.58234C47.7702 0.843915 45.5892 0.328189 42.3998 0.187537C39.187 0.0351631 38.1669 0 30.0176 0Z" fill="#FDD66F"/>
<path d="M30.0168 14.5928C21.504 14.5928 14.5977 21.4965 14.5977 30.0059C14.5977 38.5154 21.504 45.4191 30.0168 45.4191C38.5296 45.4191 45.436 38.5154 45.436 30.0059C45.436 21.4965 38.5296 14.5928 30.0168 14.5928ZM30.0168 40.004C24.4941 40.004 20.0149 35.5266 20.0149 30.0059C20.0149 24.4853 24.4941 20.0079 30.0168 20.0079C35.5396 20.0079 40.0188 24.4853 40.0188 30.0059C40.0188 35.5266 35.5396 40.004 30.0168 40.004Z" fill="#FDD66F"/>
<path d="M49.6458 13.9826C49.6458 15.9752 48.0277 17.581 46.0461 17.581C44.0527 17.581 42.4463 15.9635 42.4463 13.9826C42.4463 11.9901 44.0644 10.3843 46.0461 10.3843C48.0277 10.3843 49.6458 12.0018 49.6458 13.9826Z" fill="#FDD66F"/>
</svg>
