<svg width="81" height="60" viewBox="0 0 81 60" fill="none" xmlns="http://www.w3.org/2000/svg">
<path fill-rule="evenodd" clip-rule="evenodd" d="M65.0718 4.97243L65.0852 4.97355L65.0987 4.97458C67.9882 5.19685 69.8195 5.76352 71.0422 6.49198C72.1757 7.16735 73.0572 8.14086 73.7735 9.76346C74.5344 11.4871 75.09 13.9096 75.4308 17.3614C75.7692 20.7903 75.8745 24.9789 75.8745 30.1249C75.8745 35.2703 75.7693 39.4813 75.4305 42.9383C75.0893 46.4195 74.5324 48.8768 73.7679 50.6243C73.0466 52.2729 72.1675 53.2369 71.0634 53.886C69.8727 54.5861 68.0729 55.1213 65.2066 55.2682L65.1976 55.2687L65.1886 55.2692C53.3439 55.9272 26.8507 55.9281 14.9681 55.2718C12.1038 55.0472 10.2848 54.4826 9.06831 53.7578C7.93476 53.0824 7.05324 52.1089 6.33696 50.4863C5.5761 48.7627 5.02045 46.3401 4.67972 42.8884C4.34124 39.4594 4.23602 35.2709 4.23602 30.1249C4.23602 24.9789 4.34124 20.7903 4.67972 17.3614C5.02045 13.9096 5.5761 11.4871 6.33696 9.76346C7.05324 8.14086 7.93476 7.16735 9.06831 6.49198C10.291 5.76352 12.1223 5.19685 15.0118 4.97458L15.0253 4.97355L15.0387 4.97243C26.8212 3.99056 53.2893 3.99056 65.0718 4.97243ZM0 30.1249C0 50.8201 1.66897 58.4973 14.6869 59.4987C26.7035 60.1663 53.407 60.1663 65.4236 59.4987C78.4415 58.8311 80.1105 50.8201 80.1105 30.1249C80.1105 9.42967 78.4415 1.75242 65.4236 0.751036C53.407 -0.250345 26.7035 -0.250345 14.6869 0.751036C1.66897 1.75242 0 9.42967 0 30.1249ZM33.1068 41.9437C31.6985 42.6478 30.0416 41.6238 30.0416 40.0493V20.1998C30.0416 18.6253 31.6985 17.6013 33.1068 18.3054L52.9562 28.2301C54.5173 29.0107 54.5173 31.2384 52.9562 32.0189L33.1068 41.9437Z" fill="#FDD66F"/>
</svg>
