<svg width="36" height="40" viewBox="0 0 36 40" fill="none" xmlns="http://www.w3.org/2000/svg">
<path d="M26.461 14.4393C29.0333 16.2846 32.1844 17.3703 35.5878 17.3703V10.7978C34.9437 10.798 34.3012 10.7306 33.6711 10.5966V15.7701C30.268 15.7701 27.1173 14.6843 24.5443 12.8392V26.2516C24.5443 32.9612 19.1245 38.4 12.4391 38.4C9.94467 38.4 7.62617 37.6432 5.7002 36.3452C7.89838 38.6009 10.9639 40.0001 14.3554 40.0001C21.0412 40.0001 26.4613 34.5613 26.4613 27.8515V14.4393H26.461ZM28.8255 7.80849C27.5109 6.36721 26.6478 4.50462 26.461 2.44545V1.6001H24.6447C25.1019 4.2173 26.6613 6.45328 28.8255 7.80849ZM9.92868 31.1965C9.19422 30.2301 8.79732 29.0478 8.79909 27.8322C8.79909 24.7635 11.2781 22.2754 14.3365 22.2754C14.9065 22.2752 15.4731 22.3628 16.0163 22.5358V15.8165C15.3815 15.7291 14.7408 15.6921 14.1004 15.7057V20.9357C13.5568 20.7627 12.99 20.6748 12.4199 20.6754C9.36143 20.6754 6.88255 23.1633 6.88255 26.2324C6.88255 28.4025 8.12165 30.2813 9.92868 31.1965Z" fill="#FF004F"/>
<path d="M24.5443 12.839C27.1172 14.6842 30.2679 15.7699 33.671 15.7699V10.5965C31.7714 10.1904 30.0898 9.19417 28.8254 7.80849C26.6611 6.45314 25.1018 4.21716 24.6446 1.6001H19.8736V27.8512C19.8628 30.9115 17.3881 33.3895 14.3362 33.3895C12.5378 33.3895 10.9401 32.5292 9.92821 31.1965C8.12131 30.2813 6.88222 28.4024 6.88222 26.2325C6.88222 23.1637 9.36109 20.6755 12.4195 20.6755C13.0055 20.6755 13.5703 20.7671 14.1001 20.9358V15.7058C7.53218 15.842 2.25 21.2277 2.25 27.8513C2.25 31.1578 3.56539 34.1553 5.70027 36.3454C7.62625 37.6432 9.94475 38.4002 12.4392 38.4002C19.1247 38.4002 24.5444 32.9611 24.5444 26.2516V12.839H24.5443Z" fill="black"/>
<path d="M33.6706 10.5963V9.19748C31.9576 9.20009 30.2783 8.71865 28.8249 7.80823C30.1115 9.22178 31.8056 10.1964 33.6706 10.5963ZM24.6442 1.59997C24.6006 1.34985 24.5671 1.09809 24.5438 0.845357V0H17.9564V26.2514C17.9458 29.3113 15.4712 31.7893 12.4191 31.7893C11.523 31.7893 10.677 31.5758 9.92776 31.1965C10.9396 32.5291 12.5373 33.3893 14.3358 33.3893C17.3873 33.3893 19.8625 30.9115 19.8732 27.8512V1.59997H24.6442ZM14.0999 15.7057V14.2165C13.5495 14.141 12.9945 14.1031 12.4389 14.1034C5.75287 14.1032 0.333008 19.5423 0.333008 26.2514C0.333008 30.4576 2.46311 34.1645 5.69996 36.345C3.56507 34.155 2.24969 31.1574 2.24969 27.8511C2.24969 21.2275 7.53173 15.8419 14.0999 15.7057Z" fill="#00F2EA"/>
</svg>
