<svg width="58" height="40" viewBox="0 0 58 40" fill="none" xmlns="http://www.w3.org/2000/svg">
<path d="M56.8191 6.25899C56.1581 3.81162 54.2217 1.88249 51.766 1.22347C47.2794 0 29.3331 0 29.3331 0C29.3331 0 11.3872 0 6.90062 1.17683C4.4922 1.83542 2.50852 3.81206 1.84758 6.25899C0.666992 10.7292 0.666992 20 0.666992 20C0.666992 20 0.666992 29.3174 1.84758 33.741C2.50895 36.1879 4.44496 38.1175 6.90106 38.7765C11.4344 40 29.3335 40 29.3335 40C29.3335 40 47.2794 40 51.766 38.8232C54.2221 38.1646 56.1581 36.235 56.8195 33.7881C58.0001 29.3174 58.0001 20.0471 58.0001 20.0471C58.0001 20.0471 58.0473 10.7292 56.8191 6.25899Z" fill="#FF0000"/>
<path d="M23.667 28.6668L38.667 20.0002L23.667 11.3335V28.6668Z" fill="white"/>
</svg>
