<svg width="51" height="48" viewBox="0 0 51 60" fill="none" xmlns="http://www.w3.org/2000/svg">
<path d="M23.656 0.305069C24.8511 -0.101853 26.154 -0.101853 27.3469 0.306048L47.2723 7.10931C49.5061 7.86919 51 9.91634 51 12.2159V32.1409C51 38.2025 48.7458 44.0411 44.6833 48.5892C42.7666 50.738 40.3244 52.5284 37.3703 54.0807L26.5974 59.7349C25.9243 60.0882 25.1132 60.0884 24.4399 59.7354L13.6479 54.0778C10.6858 52.5232 8.24386 50.7362 6.32736 48.5881C2.25871 44.0368 0 38.1944 0 32.1291V12.2159C0 9.91634 1.4939 7.86919 3.72522 7.11015L23.656 0.305069ZM25.8392 4.46853C25.6211 4.39398 25.3798 4.39398 25.1598 4.46887L5.22848 11.2742C4.81649 11.4143 4.54168 11.7909 4.54168 12.2159V32.1291C4.54168 37.1284 6.40339 41.9439 9.75768 45.6961C11.2813 47.4039 13.2939 48.8767 15.8055 50.1947L25.5151 55.2848L35.2108 50.1987C37.4015 49.0476 39.2167 47.7737 40.6576 46.3282L41.2523 45.6981C44.6004 41.9496 46.4583 37.1375 46.4583 32.1409V12.2159C46.4583 11.7909 46.1835 11.4143 45.769 11.2733L25.8392 4.46853ZM36.7659 21.7197C37.5721 22.503 37.6454 23.7288 36.9857 24.5925L36.7659 24.84L24.9636 36.3072C24.1572 37.0907 22.8954 37.1617 22.0064 36.5205L21.7517 36.3068L16.0231 30.7379C15.1365 29.8761 15.1369 28.4791 16.024 27.6176C16.8304 26.8345 18.092 26.7637 18.9808 27.4048L19.2354 27.6185L23.3563 31.6267L33.5544 21.7197C34.4412 20.8581 35.8791 20.8581 36.7659 21.7197Z" fill="white"/>
</svg>
