<svg width="51" height="61" viewBox="0 0 51 61" fill="none" xmlns="http://www.w3.org/2000/svg">
<path d="M26.8188 1.41535C26.8293 1.42278 26.841 1.43119 26.8525 1.43967C26.9555 1.51549 27.0445 1.59268 27.1264 1.67554L27.1302 1.67934L49.3417 23.6575C50.222 24.5285 50.2191 25.9347 49.3351 26.8021C48.5328 27.5895 47.2781 27.6638 46.3911 27.023L46.1098 26.7827L28.6217 9.47789L27.7701 8.6352L27.77 9.83328L27.7674 57.7727C27.7674 58.9959 26.759 60 25.4996 60C24.3518 60 23.4108 59.1645 23.2548 58.0907L23.2319 57.7557L23.2333 9.82999L23.2334 8.63176L22.3816 9.47456L4.87734 26.7955C3.99305 27.6706 2.55322 27.6737 1.66507 26.8023C0.865598 26.0179 0.787015 24.7931 1.42871 23.9227L1.67124 23.6447L23.8773 1.66873L24.1104 1.4656C24.1282 1.45203 24.1456 1.43819 24.1637 1.42523C24.2287 1.38067 24.2935 1.33929 24.3582 1.30218L24.361 1.30054C24.5044 1.21706 24.6552 1.15177 24.8117 1.10316C24.8705 1.08582 24.9282 1.0704 24.985 1.05748L24.9919 1.05585C25.0303 1.04653 25.0714 1.03834 25.1154 1.03097C25.1673 1.02309 25.2168 1.01658 25.2651 1.0117L25.2715 1.01102C25.315 1.00608 25.3614 1.00275 25.4102 1.0009C25.4396 1.0005 25.4636 1.00011 25.4875 1L25.7487 1.01322C25.7934 1.01801 25.8377 1.02405 25.8814 1.03133L25.883 1.03158C25.938 1.04056 25.9941 1.05207 26.0505 1.0659C26.0956 1.07709 26.1395 1.08927 26.1824 1.10255C26.233 1.11813 26.8358 1.44559 26.8871 1.4656" stroke="white"/>
</svg>
