<svg width="65" height="62" viewBox="0 0 65 62" fill="none" xmlns="http://www.w3.org/2000/svg">
<path d="M32.2199 52.8544L32.2092 52.8601M32.2092 52.8601C32.2018 52.8641 32.1943 52.8683 32.1872 52.8726M32.2092 52.8601L17.4671 60.568L17.4622 60.5706C16.8972 60.8547 16.2666 61.0027 15.6304 61H15.6256C14.1088 61.0027 12.7139 60.1684 11.9991 58.8335L11.9973 58.8302C11.5741 58.0485 11.4201 57.1488 11.5615 56.2712L14.4501 40.0939L14.4627 40.0232V39.9513C14.4627 39.7807 14.4161 39.5073 14.1895 39.2806L14.1784 39.2698L2.18227 27.7276L2.18051 27.7259C1.42769 26.9909 1.00296 25.9816 1 24.9244C1.00028 23.8042 1.44739 22.7313 2.23975 21.9487C2.87506 21.3805 3.65894 21.0051 4.50186 20.8616L20.8349 18.5005C20.9625 18.4905 21.1216 18.454 21.2771 18.3562C21.4366 18.2558 21.5845 18.0907 21.6551 17.8734L28.9363 3.27541L28.9373 3.27369C29.4184 2.30331 30.2651 1.56631 31.2937 1.21622C31.7164 1.07172 32.1661 1.00022 32.6195 1C34.1722 1.00892 35.5841 1.88673 36.274 3.27442L43.6071 17.9993L43.6661 18.1177L43.7595 18.2112L43.7615 18.213C43.7732 18.2249 43.8254 18.2779 43.8868 18.3251C43.9285 18.357 44.0897 18.4811 44.3323 18.5083L60.7285 20.8728L60.7308 20.8731C61.8043 21.0249 62.7773 21.5878 63.4423 22.4424C64.6556 24.0732 64.4681 26.3458 63.0056 27.7571L51.1022 39.2712L51.0925 39.2808L51.0906 39.2827L51.0883 39.285L51.0829 39.2904L51.0696 39.3045C51.0662 39.3082 51.0622 39.3126 51.0576 39.3176C51.0494 39.3267 51.0395 39.338 51.0286 39.3512C51.0147 39.3682 50.9848 39.4055 50.9542 39.4558C50.949 39.464 50.8324 39.6382 50.8324 39.8865V39.8894V39.8977C50.8326 39.9038 50.8327 39.9192 50.834 39.9385C50.8361 39.9755 50.8436 40.065 50.8827 40.1714C50.8853 40.1784 50.888 40.1852 50.8906 40.192M32.2092 52.8601C32.3608 52.7764 32.5587 52.7157 32.7831 52.7318L32.9513 52.7438L33.1006 52.8218L47.7633 60.4759L47.7727 60.4807C48.3635 60.799 49.0246 60.9638 49.694 60.961H49.6973C49.904 60.961 50.1215 60.9429 50.3438 60.9119M50.3438 60.9119L50.3352 60.9132M50.3438 60.9119L50.3527 60.9106M50.3438 60.9119C52.538 60.5487 54.0374 58.495 53.7194 56.2963M50.8906 40.192L53.7194 56.2963M50.8906 40.192L50.8673 40.0592M50.8906 40.192C50.9321 40.2959 50.9866 40.37 51.0236 40.414C51.0409 40.4346 51.0557 40.45 51.062 40.4566L51.0679 40.4626M50.8906 40.192L51.0679 40.4626M53.7194 56.2963L53.7213 56.3078M53.7194 56.2963C53.7189 56.2927 53.7184 56.2892 53.7178 56.2856M51.0017 40.3838C51.0067 40.3911 51.0169 40.4051 51.032 40.4231C51.0396 40.4323 51.0481 40.4415 51.0567 40.451L51.0679 40.4626M51.0679 40.4626L51.07 40.4647L51.0719 40.4667L51.0679 40.4626ZM33.2563 4.36384C33.2047 4.31967 33.1519 4.28388 33.099 4.25503L32.9574 4.11351H32.6216H32.56H32.3044L32.0951 4.26007L32.0813 4.26971C31.8932 4.39086 31.7962 4.54862 31.7539 4.62461L31.7453 4.64026L31.7372 4.65628L24.4042 19.3482L24.4016 19.3535C23.8121 20.5566 22.6747 21.393 21.3483 21.6003L5.03955 23.938L4.96935 23.948L4.90198 23.9701L4.70414 24.035L4.4219 24.1276L4.26622 24.3805C4.12888 24.6037 4.10745 24.8257 4.11855 24.9924L4.13946 25.3058L4.36623 25.5234L16.3625 37.0334C17.3112 37.9681 17.7439 39.3105 17.5232 40.6277L17.5225 40.6308L14.6697 56.7756L14.6573 56.8457V56.9167V56.9816V57.0815L14.6815 57.1783C14.7893 57.6095 15.1763 57.9027 15.6108 57.9027H15.6627H15.8624L16.0393 57.8099L30.7279 50.1072L30.7319 50.1051C31.3371 49.7834 32.0111 49.6129 32.6897 49.6129H32.693C33.3487 49.6102 33.998 49.7715 34.5859 50.0761L49.1792 57.697L49.3556 57.7892H49.4411C49.4571 57.7934 49.4738 57.7974 49.491 57.801C49.5885 57.8255 49.689 57.8323 49.7881 57.8216H50.1085L50.3433 57.5986L50.4082 57.537L50.7239 57.237L50.6482 56.8079L47.7909 40.6533L47.7878 40.6374C47.5275 39.3195 47.9651 37.9614 48.9447 37.0436L48.9547 37.0339L60.8574 25.4912L60.9675 25.3845L61.0311 25.2447L61.0635 25.1733L61.3094 24.6325L60.8678 24.2351L60.8354 24.2059L60.6041 23.9978H60.3602C60.3215 23.99 60.2829 23.9847 60.2444 23.9816L43.8685 21.6007L43.8656 21.6003C42.5399 21.3963 41.3994 20.5574 40.8131 19.3548L40.8095 19.3477L33.5308 4.79347C33.4887 4.64754 33.41 4.51426 33.302 4.40613L33.28 4.38411L33.2563 4.36384Z" stroke="white"/>
</svg>
