<svg width="64" height="60" viewBox="0 0 64 60" fill="none" xmlns="http://www.w3.org/2000/svg">
<path d="M51.2759 37.0447C57.5593 37.0447 62.6568 42.0856 62.6568 48.2723C62.6568 54.4554 57.5592 59.5 51.2759 59.5C44.9925 59.5 39.895 54.4554 39.895 48.2723C39.895 42.0856 44.9924 37.0447 51.2759 37.0447ZM51.2759 41.5454C47.5248 41.5454 44.4676 44.5539 44.4676 48.2723C44.4676 51.9869 47.5246 54.9992 51.2759 54.9992C55.0271 54.9992 58.0841 51.9869 58.0841 48.2723C58.0841 44.5539 55.0269 41.5454 51.2759 41.5454ZM25.6331 46.0208C26.9012 46.0208 27.9194 47.0353 27.9194 48.2712C27.9194 49.5072 26.9012 50.5216 25.6331 50.5216H2.78893C1.52088 50.5216 0.502601 49.5072 0.502601 48.2712C0.502601 47.0353 1.52088 46.0208 2.78893 46.0208H25.6331ZM11.8809 0.5C18.1642 0.5 23.2618 5.54456 23.2618 11.7277C23.2618 17.9108 18.1642 22.9553 11.8809 22.9553C5.60118 22.9553 0.5 17.9107 0.5 11.7277C0.5 5.54466 5.60118 0.5 11.8809 0.5ZM11.8809 5.00079C8.13356 5.00079 5.07266 8.01294 5.07266 11.7277C5.07266 15.4424 8.13356 18.4546 11.8809 18.4546C15.6322 18.4546 18.6892 15.4422 18.6892 11.7277C18.6892 8.01313 15.6322 5.00079 11.8809 5.00079ZM60.3716 9.47801C61.6396 9.47801 62.6579 10.4924 62.6579 11.7284C62.6579 12.9644 61.6396 13.9788 60.3716 13.9788H37.5237C36.2556 13.9788 35.2373 12.9644 35.2373 11.7284C35.2373 10.4924 36.2556 9.47801 37.5237 9.47801H60.3716Z" stroke="white"/>
</svg>
