<svg width="60" height="60" viewBox="0 0 60 60" fill="none" xmlns="http://www.w3.org/2000/svg">
<path d="M18.0404 33.3346C22.6959 33.3346 26.4677 37.135 26.4677 41.824V51.0134C26.4677 55.6999 22.6954 59.5 18.0404 59.5H8.92722C4.27222 59.5 0.5 55.6999 0.5 51.0134V41.824C0.5 37.135 4.27179 33.3346 8.92722 33.3346H18.0404ZM51.0756 33.3346C55.7286 33.3346 59.5 37.1355 59.5 41.824V51.0134C59.5 55.6995 55.7282 59.5 51.0756 59.5H41.9596C37.3046 59.5 33.5323 55.6999 33.5323 51.0134V41.824C33.5323 37.135 37.3041 33.3346 41.9596 33.3346H51.0756ZM18.0404 36.5206H8.92722C6.03072 36.5206 3.68605 38.8955 3.68605 41.824V51.0134C3.68605 53.9397 6.03126 56.3139 8.92722 56.3139H18.0404C20.9364 56.3139 23.2816 53.9397 23.2816 51.0134V41.824C23.2816 38.8955 20.9369 36.5206 18.0404 36.5206ZM51.0756 36.5206H41.9596C39.0631 36.5206 36.7184 38.8954 36.7184 41.824V51.0134C36.7184 53.9397 39.0636 56.3139 41.9596 56.3139H51.0756C53.9693 56.3139 56.3139 53.9391 56.3139 51.0134V41.824C56.3139 38.896 53.9698 36.5206 51.0756 36.5206ZM51.0756 0.5C55.7282 0.5 59.5 4.30049 59.5 8.98656V18.1789C59.5 22.863 55.7273 26.6654 51.0756 26.6654H41.9596C37.3055 26.6654 33.5323 22.8634 33.5323 18.1789V8.98656C33.5323 4.30005 37.3046 0.5 41.9596 0.5H51.0756ZM18.0404 0.5C22.6954 0.5 26.4677 4.30005 26.4677 8.98656V18.1789C26.4677 22.8634 22.6945 26.6654 18.0404 26.6654H8.92722C4.27312 26.6654 0.5 22.8634 0.5 18.1789V8.98656C0.5 4.30005 4.27222 0.5 8.92722 0.5H18.0404ZM51.0756 3.68605H41.9596C39.0636 3.68605 36.7184 6.06034 36.7184 8.98656V18.1789C36.7184 21.1033 39.0647 23.4794 41.9596 23.4794H51.0756C53.9682 23.4794 56.3139 21.1028 56.3139 18.1789V8.98656C56.3139 6.0609 53.9693 3.68605 51.0756 3.68605ZM18.0404 3.68605H8.92722C6.03126 3.68605 3.68605 6.06034 3.68605 8.98656V18.1789C3.68605 21.1033 6.03234 23.4794 8.92722 23.4794H18.0404C20.9353 23.4794 23.2816 21.1033 23.2816 18.1789V8.98656C23.2816 6.06035 20.9364 3.68605 18.0404 3.68605Z" stroke="white"/>
</svg>
