<svg width="60" height="60" viewBox="0 0 60 60" fill="none" xmlns="http://www.w3.org/2000/svg">
<path d="M43.0764 0.5C48.0395 0.5 52.1348 2.26543 54.9908 5.27297C57.8491 8.28296 59.5 12.5733 59.5 17.6795V42.3205C59.5 47.4267 57.8491 51.717 54.9908 54.727C52.1348 57.7346 48.0395 59.5 43.0764 59.5H16.9236C11.9605 59.5 7.86517 57.7346 5.00918 54.727C2.15085 51.717 0.5 47.4267 0.5 42.3205V17.6795C0.5 12.5786 2.15503 8.28816 5.0158 5.27669C7.87429 2.26762 11.9698 0.5 16.9236 0.5H43.0764ZM43.0764 3.68605H16.9236C12.917 3.68605 9.59396 5.06042 7.27466 7.52606C4.9584 9.98846 3.68605 13.4932 3.68605 17.6795V42.3205C3.68605 46.5116 4.95393 50.0166 7.2684 52.4779C9.58598 54.9426 12.9092 56.3139 16.9236 56.3139H43.0764C47.0908 56.3139 50.414 54.9426 52.7316 52.4779C55.0461 50.0166 56.3139 46.5116 56.3139 42.3205V17.6795C56.3139 13.4884 55.0461 9.98343 52.7316 7.52205C50.414 5.05737 47.0908 3.68605 43.0764 3.68605ZM17.0831 23.3885C17.8837 23.3885 18.5471 23.9797 18.6593 24.7491L18.6761 24.9983V44.1261C18.6761 45.0059 17.9629 45.7191 17.0831 45.7191C16.2824 45.7191 15.619 45.128 15.5068 44.3585L15.49 44.1093V24.9815C15.49 24.1017 16.2033 23.3885 17.0831 23.3885ZM30.1063 14.2278C30.907 14.2278 31.5704 14.8189 31.6826 15.5884L31.6993 15.8376V44.1261C31.6993 45.0059 30.9861 45.7191 30.1063 45.7191C29.3056 45.7191 28.6422 45.128 28.5301 44.3585L28.5133 44.1093V15.8208C28.5133 14.941 29.2265 14.2278 30.1063 14.2278ZM42.9169 33.5051C43.7176 33.5051 44.381 34.0963 44.4932 34.8657L44.51 35.1149V44.1261C44.51 45.0059 43.7967 45.7191 42.9169 45.7191C42.1163 45.7191 41.4529 45.128 41.3407 44.3585L41.3239 44.1093V35.0981C41.3239 34.2183 42.0371 33.5051 42.9169 33.5051Z" stroke="white"/>
</svg>
