<svg width="63" height="60" viewBox="0 0 63 60" fill="none" xmlns="http://www.w3.org/2000/svg">
<g clip-path="url(#clip0_482_6975)">
<path d="M54.3472 36.6698L54.3471 36.6699L54.3579 36.6721C58.0511 37.4067 60.6284 38.7483 61.7981 41.202C62.6743 43.0453 62.6742 45.1902 61.7983 47.0332V47.0333C60.6355 49.4806 58.0869 50.8122 54.3697 51.5767C53.363 51.7838 52.3791 51.1356 52.1721 50.1289C51.965 49.1222 52.6132 48.1383 53.6199 47.9312C54.8568 47.6768 55.9092 47.3392 56.7196 46.9355C57.5144 46.5395 58.1473 46.0448 58.4367 45.4358C58.8322 44.6037 58.8324 43.6322 58.4378 42.8019L58.4376 42.8014C58.1464 42.1906 57.5103 41.6948 56.7093 41.2992C55.894 40.8965 54.8347 40.5617 53.5873 40.3129C51.9991 39.9616 50.3932 39.7302 48.7784 39.6204C47.753 39.5506 46.9783 38.6629 47.0481 37.6375C47.1178 36.6121 48.0056 35.8374 49.031 35.9071C50.8338 36.0298 52.6258 36.2882 54.3472 36.6698ZM23.8955 38.1375L24.8978 38.1418C24.8982 38.1418 24.8986 38.1418 24.8991 38.1418C32.1938 38.2054 37.8286 38.9761 41.6246 40.6933C43.5147 41.5484 44.9259 42.6281 45.8656 43.9507C46.8021 45.2688 47.2941 46.8613 47.2941 48.7873C47.2941 50.6727 46.8224 52.2417 45.9248 53.548C45.0247 54.8581 43.674 55.936 41.8672 56.7983C38.2383 58.5303 32.8511 59.3549 25.8788 59.4823C25.8779 59.4824 25.8771 59.4824 25.8763 59.4824L23.8955 59.5C23.8947 59.5 23.894 59.5 23.8932 59.5C16.283 59.4999 10.3962 58.7736 6.42741 57.0602C4.45064 56.2068 2.97496 55.1191 1.99261 53.7778C1.0141 52.4418 0.5 50.8203 0.5 48.8502C0.5 46.8778 1.01612 45.2507 1.99772 43.9079C2.98314 42.5599 4.46252 41.4647 6.4415 40.6043C10.4147 38.8768 16.3016 38.1376 23.8942 38.1375C23.8946 38.1375 23.8951 38.1375 23.8955 38.1375ZM23.8955 41.8593C17.5558 41.8593 12.6969 42.414 9.40588 43.5293C6.13151 44.639 4.22181 46.3815 4.22181 48.8502C4.22181 51.3075 6.13058 53.0334 9.40156 54.13C12.6901 55.2325 17.5485 55.7782 23.8955 55.7782C30.2356 55.7782 35.0953 55.2234 38.387 54.1081C41.6619 52.9985 43.5723 51.2559 43.5723 48.7873C43.5723 46.3309 41.6617 44.6051 38.3899 43.5083C35.1003 42.4055 30.2411 41.8593 23.8955 41.8593ZM23.8955 0.5C32.5847 0.5 39.5598 7.47417 39.5598 16.1612C39.5598 24.8508 32.5852 31.8255 23.8955 31.8255C15.2064 31.8255 8.23432 24.8514 8.23432 16.1612C8.23432 7.47362 15.2069 0.5 23.8955 0.5ZM44.1322 3.86696C50.8912 3.86696 56.3716 9.34851 56.3716 16.1064C56.3716 22.8664 50.8922 28.3458 44.1322 28.3458C43.1045 28.3458 42.2713 27.5127 42.2713 26.4849C42.2713 25.4572 43.1045 24.624 44.1322 24.624C48.8367 24.624 52.6498 20.8109 52.6498 16.1064C52.6498 11.4039 48.8356 7.58877 44.1322 7.58877C43.1045 7.58877 42.2713 6.75562 42.2713 5.72787C42.2713 4.70012 43.1045 3.86696 44.1322 3.86696ZM23.8955 4.22181C17.2625 4.22181 11.9561 9.529 11.9561 16.1612C11.9561 22.796 17.262 28.1037 23.8955 28.1037C30.5297 28.1037 35.838 22.7953 35.838 16.1612C35.838 9.52963 30.5291 4.22181 23.8955 4.22181Z" stroke="white"/>
</g>
<defs>
<clipPath id="clip0_482_6975">
<rect width="63" height="60" fill="white"/>
</clipPath>
</defs>
</svg>
