<svg width="58" height="60" viewBox="0 0 58 60" fill="none" xmlns="http://www.w3.org/2000/svg">
<g clip-path="url(#clip0_482_6967)">
<path d="M53.21 17.3691V17.3692L53.2162 17.374C55.1115 18.8421 56.2762 21.0227 56.4768 23.3996L56.5057 23.9818V48.2988C56.5057 54.294 51.7724 59.1773 45.8312 59.5H39.8791C37.2877 59.4458 35.1936 57.4288 35.0022 54.8965C35.0021 54.896 35.0021 54.8955 35.0021 54.895L34.9735 54.4917V45.9316C34.9735 44.74 34.0895 43.7657 32.9347 43.5751L32.9217 43.5729L32.9085 43.5715L32.6385 43.5415L32.611 43.5384H32.5833H24.5695H24.5616L24.5538 43.5386C23.3657 43.5759 22.3708 44.4367 22.2167 45.5925H22.2165L22.2153 45.6039L22.1853 45.877L22.1823 45.9042V45.9316V54.4824C22.1823 54.5927 22.1636 54.7346 22.1415 54.8663L22.1408 54.8675L22.1099 54.9326L22.0985 55.0038L22.0655 55.2108H22.0654L22.0641 55.2203C21.7403 57.5359 19.8353 59.3075 17.4568 59.4742L17.0844 59.5H11.7312C5.73173 59.5 0.822496 54.7984 0.5 48.8854V23.9721C0.52617 21.5673 1.57283 19.3348 3.32318 17.7777L22.0032 2.75569C22.0036 2.75539 22.004 2.75509 22.0043 2.75479C25.6382 -0.131468 30.7306 -0.246702 34.4764 2.40854L34.9479 2.76L53.21 17.3691ZM24.4467 4.88743L24.4372 4.89369L24.4281 4.90036L23.975 5.2304L23.9652 5.23759L23.9557 5.24526L5.7214 19.9436C4.56207 20.8077 3.86921 22.1019 3.7041 23.4558L3.7025 23.4689L3.7016 23.482L3.6686 23.9621L3.66742 23.9792V23.9964V48.2988C3.66742 52.5566 6.99653 56.0428 11.2209 56.2987L11.236 56.2996H11.2511H17.1017C17.9777 56.2996 18.7886 55.7003 18.9142 54.7909H18.9143L18.9155 54.7804L18.9762 54.2596L19.0025 54.1256L19.0119 54.078V54.0294V45.9316C19.0119 42.9911 21.259 40.6 24.1421 40.368H32.5833C35.5202 40.368 37.9118 42.6176 38.1439 45.5012V54.5094C38.1439 55.3759 38.7606 56.127 39.5983 56.2903L39.6457 56.2996H39.694H45.2716C49.5533 56.2996 53.0442 53.0098 53.3013 48.8109C53.3013 48.8104 53.3013 48.8099 53.3014 48.8093L53.3341 48.3331L53.3353 48.316V48.2988V23.9964H53.3355L53.3351 23.9836C53.2987 22.5629 52.7052 21.2358 51.6823 20.2492L51.6714 20.2386L51.6598 20.2288L51.2698 19.8958L51.2637 19.8906L51.2575 19.8856L32.9563 5.2446C32.9562 5.24453 32.9561 5.24446 32.956 5.24439C30.5007 3.2739 27.0221 3.18444 24.4467 4.88743Z" stroke="white"/>
</g>
<defs>
<clipPath id="clip0_482_6967">
<rect width="58" height="60" fill="white"/>
</clipPath>
</defs>
</svg>
