<svg width="64" height="60" viewBox="0 0 64 60" fill="none" xmlns="http://www.w3.org/2000/svg">
<g clip-path="url(#clip0_482_6973)">
<path d="M44.8162 4.19441V4.19426H44.8041H18.3538C10.4659 4.19426 4.09024 10.7307 4.09024 18.7697V41.2303C4.09024 49.2693 10.4659 55.8057 18.3538 55.8057H44.8041C52.692 55.8057 59.0677 49.2693 59.0677 41.2303V41.2295L59.0663 40.354L59.0655 39.8546L58.5662 39.8547L48.4738 39.8573C42.9446 39.8539 38.4446 35.2703 38.4412 29.5876C38.4414 24.099 42.6448 19.6324 47.9179 19.3343L48.4819 19.3184L58.5663 19.3179H59.0526L59.0661 18.8318L59.0675 18.7837H59.0677V18.7697C59.0677 10.9667 53.0617 4.58024 45.4953 4.21108V4.21093L45.4831 4.21064L44.8162 4.19441ZM59.0663 23.5105V23.0104L58.5662 23.0105L48.4762 23.0126H48.476C44.9062 23.0149 42.0315 25.9679 42.0315 29.5864V29.5867C42.0336 33.0362 44.6393 35.8778 47.9709 36.143L47.9807 36.1437L47.9906 36.1441L48.4549 36.1627L48.4649 36.1631H48.4749L58.5664 36.1621H59.0663V35.6621V23.5105ZM44.8041 0.5C54.6538 0.5 62.6579 8.66917 62.6579 18.7697V41.2303C62.6579 51.3308 54.6538 59.5 44.8041 59.5H18.3538C8.50408 59.5 0.5 51.3308 0.5 41.2303V18.7697C0.5 8.66917 8.50408 0.5 18.3538 0.5H44.8041ZM49.8763 27.5479C50.8572 27.5479 51.6714 28.3643 51.6714 29.3951C51.6714 30.333 50.9955 31.0956 50.1351 31.2232L49.8591 31.2422H48.9225C47.9416 31.2422 47.1274 30.4258 47.1274 29.3951C47.1274 28.4571 47.8034 27.6945 48.6637 27.5669L48.9397 27.5479H49.8763ZM32.6965 14.7022C33.6774 14.7022 34.4916 15.5186 34.4916 16.5493C34.4916 17.4873 33.8156 18.2499 32.9552 18.3775L32.6793 18.3965H16.1748C15.1939 18.3965 14.3797 17.5801 14.3797 16.5493C14.3797 15.6114 15.0557 14.8488 15.9161 14.7212L16.192 14.7022H32.6965Z" stroke="white"/>
</g>
<defs>
<clipPath id="clip0_482_6973">
<rect width="64" height="60" fill="white"/>
</clipPath>
</defs>
</svg>
