<svg width="39" height="50" viewBox="0 0 39 50" fill="none" xmlns="http://www.w3.org/2000/svg">
<path d="M17.742 0.228802C18.6383 -0.0763895 19.6155 -0.0763895 20.5102 0.229536L35.4542 5.33198C37.1296 5.90189 38.25 7.43725 38.25 9.16195V24.1057C38.25 28.6519 36.5593 33.0308 33.5125 36.4419C32.075 38.0535 30.2433 39.3963 28.0277 40.5605L19.9481 44.8012C19.4432 45.0661 18.8349 45.0663 18.3299 44.8015L10.2359 40.5583C8.01433 39.3924 6.1829 38.0522 4.74552 36.4411C1.69403 33.0276 0 28.6458 0 24.0969V9.16195C0 7.43725 1.12042 5.90189 2.79392 5.33261L17.742 0.228802ZM19.3794 1.8514C19.2158 1.79548 19.0349 1.79548 18.8699 1.85165L11.3956 4.40364L2.76511 6.99866C2.45611 7.10377 2.25 7.38621 2.25 7.70499L1.90626 24.0969C1.90626 27.8463 3.48428 31.7834 6 34.5976C7.14274 35.8784 9.97042 38.1575 11.8541 39.1461L19.1364 42.9636L26.4081 39.149C28.0512 38.2857 31.0984 35.6817 32.179 34.5976L32.625 34.125C35.1361 31.3137 36.3437 27.8531 36.3437 24.1057V8.41195C36.3437 8.09317 36.1376 7.81073 35.8268 7.70499L19.3794 1.8514ZM27.5744 16.2898C28.1791 16.8773 28.234 17.7966 27.7393 18.4444L27.5744 18.63L18.7227 27.2304C18.1179 27.818 17.1715 27.8713 16.5048 27.3904L16.3138 27.2301L12.0173 23.0534C11.3524 22.407 11.3527 21.3593 12.018 20.7132C12.6228 20.1259 13.569 20.0727 14.2356 20.5536L14.4266 20.7139L17.5172 23.72L25.1658 16.2898C25.8309 15.6435 26.9093 15.6435 27.5744 16.2898Z" fill="white"/>
</svg>
