<svg width="67" height="60" viewBox="0 0 67 60" fill="none" xmlns="http://www.w3.org/2000/svg">
<path d="M52.9 4.9L13.7 4.5C8.6 4.5 4.5 8.6 4.5 13.7V20.7V21.1L4.9 21.2L5.2 21.3C8.9 22.3 11.6 25.5 11.9 29.5V30.1C11.9 34.4 9.1 37.9 5.2 39.1L4.9 39.2L4.5 39.3V39.7V46.5C4.5 51.4 8.3 55.4 13.1 55.7H13.7H52.4C57.5 55.7 61.6 51.6 61.6 46.5V39.7V39.3L61.2 39.2L60.9 39C57.2 37.9 54.5 34.6 54.2 30.6V30C54.2 25.7 57 22.2 60.9 21L61.2 20.9L61.6 20.8V20.4C61.6 20.4 61.7 15.3 61.6 13.6C61.3 5.5 52.9 4.9 52.9 4.9ZM40.9 32.6V32.3L41.1 32.1L44.8 28.5L45 28.2C46.3 26.6 45.4 24.1 43.3 23.8L38.2 23.1H37.9L37.8 22.9L35.5 18.2C34.5 16.2 31.6 16.2 30.6 18.2L28.3 22.9L28.2 23.1H27.9L22.8 24H22.5C20.5 24.5 19.8 27.1 21.3 28.6L25 32.2L25.2 32.4V32.7L24.3 37.8V38.1C24.2 40.2 26.4 41.6 28.3 40.6L32.9 38.2L33.1 38.1L33.3 38.2L37.9 40.6L38.2 40.7C40.1 41.4 42.2 39.8 41.8 37.7L40.9 32.6ZM65.5 13.7V22.6C65.5 23.7 64.6 24.6 63.5 24.6H63C60.2 24.9 58.1 27.2 58.1 30C58.1 33 60.5 35.4 63.5 35.4C64.6 35.4 65.5 36.3 65.5 37.4V46.3C65.5 53.6 59.6 59.5 52.3 59.5H13.7C6.4 59.5 0.5 53.6 0.5 46.3V37.4C0.5 36.3 1.4 35.4 2.5 35.4C5.5 35.4 7.9 33 7.9 30C7.9 27.1 5.5 24.9 2.5 24.9C1.4 24.9 0.5 24 0.5 22.9V13.7C0.5 6.4 6.4 0.5 13.7 0.5H52.4C59.6 0.5 65.5 6.4 65.5 13.7ZM33.5 23.2L33 22.3L32.6 23.2L31.3 25.9C31 26.5 30.5 26.9 29.8 27L26.9 27.4L25.9 27.5L26.6 28.2L28.7 30.3C29.1 30.7 29.3 31.2 29.3 31.8V32.1L28.8 35L28.6 36L29.5 35.5L32.1 34.1C32.6 33.8 33.2 33.8 33.7 34L34 34.1L36.6 35.5L37.5 36L37.3 35L36.8 32C36.7 31.5 36.8 30.9 37.2 30.5L37.4 30.3L39.5 28.2L40.2 27.5L39.2 27.4L36.3 27C35.8 26.9 35.3 26.6 35 26.2L34.8 25.9L33.5 23.2Z" stroke="white" stroke-miterlimit="10"/>
</svg>
