<svg width="62" height="62" viewBox="0 0 62 62" fill="none" xmlns="http://www.w3.org/2000/svg">
<mask id="path-1-outside-1" maskUnits="userSpaceOnUse" x="0" y="0" width="62" height="62" fill="black">
<rect fill="white" width="62" height="62"/>
<path d="M36.8478 3.15855L37.3947 3.66849L39.5506 5.82441C40.2911 6.56147 41.2625 7.01591 42.2958 7.118L42.7419 7.13998H45.8254C50.6362 7.13998 54.57 10.9019 54.8448 15.6439L54.8601 16.1747V19.2552C54.8601 20.3044 55.2219 21.3131 55.8746 22.1152L56.1719 22.4458L58.328 24.6019C61.7221 27.9806 61.8738 33.3837 58.7643 36.9444L58.3586 37.3796L56.1738 39.5644C55.439 40.301 54.9843 41.273 54.8821 42.3053L54.8601 42.7508V45.8374C54.8601 50.6479 51.0984 54.5791 46.3562 54.8537L45.8254 54.8691H42.7419C41.6964 54.8691 40.6864 55.2324 39.884 55.8869L39.5532 56.185L37.4001 58.3351C34.025 61.7332 28.618 61.884 25.0559 58.7734L24.5935 58.3405L22.4425 56.1895C21.6974 55.4497 20.7243 54.9936 19.6939 54.8911L19.2493 54.8691H16.1627C11.354 54.8691 7.42118 51.1091 7.14639 46.368L7.13106 45.8374V42.7508C7.13106 41.707 6.76722 40.696 6.11306 39.8951L5.81515 39.5652L3.66408 37.4111C0.266847 34.033 0.116155 28.6259 3.22676 25.0674L3.63258 24.6325L5.81062 22.4514C6.55135 21.7054 7.00676 20.7341 7.10904 19.7012L7.13106 19.2552V16.1747L7.1464 15.644C7.41102 11.0781 11.068 7.42003 15.6322 7.15532L16.1627 7.13998H19.2493C20.2946 7.13998 21.3048 6.77738 22.1058 6.12594L22.4357 5.82928L24.5899 3.6721C27.9685 0.278157 33.375 0.128737 36.8478 3.15855ZM28.1203 6.53641L27.7762 6.8489L25.6127 9.01533C24.0612 10.5559 22.0091 11.477 19.8427 11.6198L19.2493 11.6393H16.1627C13.8004 11.6393 11.8575 13.4515 11.6489 15.762L11.6304 16.1747V19.2552C11.6304 21.4424 10.8367 23.5455 9.40503 25.1895L8.99888 25.6262L6.81769 27.8104C5.16249 29.4731 5.06612 32.0997 6.52886 33.8816L6.8422 34.2262L8.99966 36.3866C10.5426 37.9333 11.4674 39.9889 11.6108 42.157L11.6304 42.7508V45.8374C11.6304 48.2011 13.4413 50.1427 15.7504 50.3512L16.1627 50.3697H19.2493C21.4324 50.3697 23.5373 51.1643 25.1816 52.5961L25.6184 53.0023L27.788 55.172C29.4624 56.837 32.0897 56.934 33.87 55.4713L34.2142 55.1579L36.3766 52.9986C37.9265 51.456 39.9795 50.5325 42.1479 50.3893L42.7419 50.3697H45.8254C48.1912 50.3697 50.1337 48.5597 50.3423 46.2499L50.3608 45.8374V42.7508C50.3608 40.5646 51.1551 38.4559 52.5848 36.8191L52.9904 36.3847L55.1726 34.2026C56.8278 32.538 56.9236 29.9126 55.463 28.1314L55.1501 27.787L52.9848 25.6216C51.4433 24.0691 50.523 22.0191 50.3803 19.8496L50.3608 19.2552V16.1747C50.3608 13.8098 48.5489 11.8665 46.2381 11.6579L45.8254 11.6393H42.7419C40.5547 11.6393 38.4489 10.8463 36.8084 9.41558L36.3728 9.0097L34.3093 6.94068L34.1898 6.82961C32.5272 5.17456 29.9 5.07766 28.1203 6.53641ZM40.2834 37.1314C40.4934 37.3414 40.6734 37.5814 40.7934 37.8513C40.8834 38.1213 40.9434 38.4212 40.9434 38.7212C40.9434 39.0242 40.8834 39.2911 40.7934 39.5611C40.6734 39.831 40.4934 40.101 40.2834 40.311C39.8635 40.7309 39.2936 40.9709 38.6937 40.9709C38.0938 40.9709 37.5238 40.7309 37.1039 40.311C36.8939 40.101 36.744 39.831 36.624 39.5611C36.504 39.2911 36.444 39.0242 36.444 38.7212C36.444 38.4212 36.504 38.1213 36.624 37.8513C36.744 37.5814 36.8939 37.3414 37.1039 37.1314C37.9438 36.2915 39.4436 36.2915 40.2834 37.1314ZM40.2943 21.704C41.093 22.5027 41.1656 23.7525 40.5122 24.6332L40.2943 24.8855L24.8766 40.3033C23.998 41.1818 22.5736 41.1818 21.6951 40.3033C20.8964 39.5046 20.8238 38.2548 21.4772 37.3741L21.6951 37.1217L37.1128 21.704C37.9914 20.8254 39.4158 20.8254 40.2943 21.704ZM24.8654 21.7149C25.2853 22.1318 25.5253 22.7047 25.5253 23.3046C25.5253 23.6046 25.4953 23.8716 25.3753 24.1445C25.2553 24.4145 25.0754 24.6544 24.8654 24.8944C24.6554 25.1044 24.4155 25.2514 24.1455 25.3713C23.8755 25.4913 23.5756 25.5543 23.2756 25.5543C22.9757 25.5543 22.7057 25.4913 22.4357 25.3713C22.1658 25.2514 21.8958 25.1044 21.6858 24.8944C21.4759 24.6544 21.3259 24.4145 21.2059 24.1445C21.0859 23.8716 21.0259 23.6046 21.0259 23.3046C21.0259 23.0017 21.0859 22.7047 21.2059 22.4348C21.3259 22.1648 21.4759 21.8948 21.6858 21.7149C22.5557 20.872 24.0255 20.872 24.8654 21.7149Z"/>
</mask>
<path d="M36.8478 3.15855L37.3947 3.66849L39.5506 5.82441C40.2911 6.56147 41.2625 7.01591 42.2958 7.118L42.7419 7.13998H45.8254C50.6362 7.13998 54.57 10.9019 54.8448 15.6439L54.8601 16.1747V19.2552C54.8601 20.3044 55.2219 21.3131 55.8746 22.1152L56.1719 22.4458L58.328 24.6019C61.7221 27.9806 61.8738 33.3837 58.7643 36.9444L58.3586 37.3796L56.1738 39.5644C55.439 40.301 54.9843 41.273 54.8821 42.3053L54.8601 42.7508V45.8374C54.8601 50.6479 51.0984 54.5791 46.3562 54.8537L45.8254 54.8691H42.7419C41.6964 54.8691 40.6864 55.2324 39.884 55.8869L39.5532 56.185L37.4001 58.3351C34.025 61.7332 28.618 61.884 25.0559 58.7734L24.5935 58.3405L22.4425 56.1895C21.6974 55.4497 20.7243 54.9936 19.6939 54.8911L19.2493 54.8691H16.1627C11.354 54.8691 7.42118 51.1091 7.14639 46.368L7.13106 45.8374V42.7508C7.13106 41.707 6.76722 40.696 6.11306 39.8951L5.81515 39.5652L3.66408 37.4111C0.266847 34.033 0.116155 28.6259 3.22676 25.0674L3.63258 24.6325L5.81062 22.4514C6.55135 21.7054 7.00676 20.7341 7.10904 19.7012L7.13106 19.2552V16.1747L7.1464 15.644C7.41102 11.0781 11.068 7.42003 15.6322 7.15532L16.1627 7.13998H19.2493C20.2946 7.13998 21.3048 6.77738 22.1058 6.12594L22.4357 5.82928L24.5899 3.6721C27.9685 0.278157 33.375 0.128737 36.8478 3.15855ZM28.1203 6.53641L27.7762 6.8489L25.6127 9.01533C24.0612 10.5559 22.0091 11.477 19.8427 11.6198L19.2493 11.6393H16.1627C13.8004 11.6393 11.8575 13.4515 11.6489 15.762L11.6304 16.1747V19.2552C11.6304 21.4424 10.8367 23.5455 9.40503 25.1895L8.99888 25.6262L6.81769 27.8104C5.16249 29.4731 5.06612 32.0997 6.52886 33.8816L6.8422 34.2262L8.99966 36.3866C10.5426 37.9333 11.4674 39.9889 11.6108 42.157L11.6304 42.7508V45.8374C11.6304 48.2011 13.4413 50.1427 15.7504 50.3512L16.1627 50.3697H19.2493C21.4324 50.3697 23.5373 51.1643 25.1816 52.5961L25.6184 53.0023L27.788 55.172C29.4624 56.837 32.0897 56.934 33.87 55.4713L34.2142 55.1579L36.3766 52.9986C37.9265 51.456 39.9795 50.5325 42.1479 50.3893L42.7419 50.3697H45.8254C48.1912 50.3697 50.1337 48.5597 50.3423 46.2499L50.3608 45.8374V42.7508C50.3608 40.5646 51.1551 38.4559 52.5848 36.8191L52.9904 36.3847L55.1726 34.2026C56.8278 32.538 56.9236 29.9126 55.463 28.1314L55.1501 27.787L52.9848 25.6216C51.4433 24.0691 50.523 22.0191 50.3803 19.8496L50.3608 19.2552V16.1747C50.3608 13.8098 48.5489 11.8665 46.2381 11.6579L45.8254 11.6393H42.7419C40.5547 11.6393 38.4489 10.8463 36.8084 9.41558L36.3728 9.0097L34.3093 6.94068L34.1898 6.82961C32.5272 5.17456 29.9 5.07766 28.1203 6.53641ZM40.2834 37.1314C40.4934 37.3414 40.6734 37.5814 40.7934 37.8513C40.8834 38.1213 40.9434 38.4212 40.9434 38.7212C40.9434 39.0242 40.8834 39.2911 40.7934 39.5611C40.6734 39.831 40.4934 40.101 40.2834 40.311C39.8635 40.7309 39.2936 40.9709 38.6937 40.9709C38.0938 40.9709 37.5238 40.7309 37.1039 40.311C36.8939 40.101 36.744 39.831 36.624 39.5611C36.504 39.2911 36.444 39.0242 36.444 38.7212C36.444 38.4212 36.504 38.1213 36.624 37.8513C36.744 37.5814 36.8939 37.3414 37.1039 37.1314C37.9438 36.2915 39.4436 36.2915 40.2834 37.1314ZM40.2943 21.704C41.093 22.5027 41.1656 23.7525 40.5122 24.6332L40.2943 24.8855L24.8766 40.3033C23.998 41.1818 22.5736 41.1818 21.6951 40.3033C20.8964 39.5046 20.8238 38.2548 21.4772 37.3741L21.6951 37.1217L37.1128 21.704C37.9914 20.8254 39.4158 20.8254 40.2943 21.704ZM24.8654 21.7149C25.2853 22.1318 25.5253 22.7047 25.5253 23.3046C25.5253 23.6046 25.4953 23.8716 25.3753 24.1445C25.2553 24.4145 25.0754 24.6544 24.8654 24.8944C24.6554 25.1044 24.4155 25.2514 24.1455 25.3713C23.8755 25.4913 23.5756 25.5543 23.2756 25.5543C22.9757 25.5543 22.7057 25.4913 22.4357 25.3713C22.1658 25.2514 21.8958 25.1044 21.6858 24.8944C21.4759 24.6544 21.3259 24.4145 21.2059 24.1445C21.0859 23.8716 21.0259 23.6046 21.0259 23.3046C21.0259 23.0017 21.0859 22.7047 21.2059 22.4348C21.3259 22.1648 21.4759 21.8948 21.6858 21.7149C22.5557 20.872 24.0255 20.872 24.8654 21.7149Z" stroke="white" stroke-width="2" mask="url(#path-1-outside-1)"/>
</svg>
