<svg width="63" height="60" viewBox="0 0 63 60" fill="none" xmlns="http://www.w3.org/2000/svg">
<path d="M7.43018 52.2297L6.82394 52.7084M6.82394 52.7084C7.65861 53.6672 8.56803 54.3668 9.68036 54.8183C10.7842 55.2663 12.0345 55.4486 13.5174 55.4517L13.846 55.4522L19.0979 55.4548L20.0195 55.455H43.1348L44.0563 55.4548L49.3094 55.4522L49.6381 55.4517C51.1224 55.4486 52.3742 55.2664 53.478 54.8187C54.5898 54.3678 55.4984 53.6694 56.3312 52.7124C57.5454 51.323 58.3775 49.1697 58.5029 47.199L58.503 47.1971C58.5526 46.3809 58.6982 44.6658 58.8322 43.1439C58.8991 42.3853 58.9629 41.6784 59.0099 41.1611L59.0661 40.5447L59.0817 40.3757L59.0858 40.3314L59.0869 40.3203L59.087 40.3174M6.82394 52.7084C5.61302 51.3218 4.78173 49.1689 4.65643 47.1984C4.60515 46.3815 4.45881 44.6658 4.32429 43.1442C4.25723 42.3855 4.19341 41.6785 4.14633 41.1612L4.09001 40.5447L4.07447 40.3757L4.0704 40.3315L4.06936 40.3203L4.06902 40.3166M59.087 40.3174L58.3027 40.2507M59.087 40.3174L59.0878 40.309C59.1518 39.5296 59.8128 38.9307 60.6211 38.9307C61.4799 38.9307 62.178 39.5888 62.1896 40.404C62.1891 40.4114 62.1879 40.4276 62.1857 40.4562L62.1685 40.6742L62.1061 41.4427C62.0545 42.078 61.9855 42.927 61.9159 43.7982L61.6462 47.3783C61.4758 50.0472 60.384 52.7629 58.7583 54.6276C56.4991 57.2208 53.6413 58.4432 49.6447 58.4517L49.4044 58.452L45.2762 58.4548L44.6348 58.4552H18.5234L17.8817 58.4548L13.7551 58.452L13.5146 58.4517C9.51486 58.4432 6.65735 57.2209 4.39824 54.625C2.77526 52.7629 1.68034 50.0472 1.51308 47.379C1.47803 46.8288 1.4051 45.871 1.32396 44.8423L1.24088 43.7985C1.17689 43.0006 1.1134 42.2211 1.06345 41.6076L1.05002 41.4427L0.987686 40.6742L0.970419 40.4562C0.968209 40.4276 0.967075 40.4115 0.966527 40.404C0.97814 39.5888 1.67629 38.9307 2.53508 38.9307C3.34333 38.9307 4.00442 39.5296 4.06832 40.309L4.06902 40.3166M4.06902 40.3166L4.85348 40.2507M43.9684 7.83887L44.057 8.493H44.7495H50.977C57.1539 8.493 62.1816 13.2811 62.1816 19.167V29.568C62.1816 30.0709 61.9184 30.5393 61.475 30.8213C55.0831 34.8479 47.4879 37.5367 39.5069 38.59L39.5005 38.591C39.4391 38.5997 39.368 38.604 39.2905 38.604C38.5805 38.604 37.9452 38.1444 37.7636 37.4709C37.0369 34.7445 34.4433 32.85 31.4691 32.85C28.4659 32.85 25.9024 34.7073 25.1059 37.4692C24.8942 38.2029 24.169 38.6664 23.369 38.5602C15.4439 37.5069 7.87924 34.8297 1.49571 30.8199C1.05297 30.5421 0.788086 30.0726 0.788086 29.568V19.167C0.788086 13.2829 5.82656 8.493 12.0241 8.493H18.2202H18.9122L19.0012 7.8393C19.5441 3.84594 23.0945 0.75 27.4182 0.75H35.5515C39.8753 0.75 43.4285 3.84908 43.9684 7.83887ZM3.93809 28.338V28.7557L4.31092 28.9757C9.57175 32.0789 15.6108 34.2478 21.9487 35.3106L22.5212 35.4066L22.7861 34.914C24.4306 31.8567 27.7697 29.85 31.4691 29.85C35.2031 29.85 38.5215 31.8648 40.1157 34.9317L40.3773 35.435L40.958 35.3376C47.3334 34.2688 53.3951 32.0908 58.6597 28.975L59.0316 28.755V28.338V19.167C59.0316 14.9372 55.4192 11.493 50.977 11.493H12.0241C7.56955 11.493 3.93809 14.934 3.93809 19.167V28.338ZM22.2386 7.54684L21.9695 8.493H22.9987H39.9678H40.9955L40.7282 7.54794C40.1135 5.37464 38.0395 3.75 35.5515 3.75H27.4182C24.9265 3.75 22.8565 5.37499 22.2386 7.54684ZM31.4851 38.6523C32.3544 38.6523 33.0602 39.3244 33.0602 40.1523V44.0343C33.0602 44.8621 32.3544 45.5343 31.4851 45.5343C30.6159 45.5343 29.9101 44.8621 29.9101 44.0343V40.1523C29.9101 39.3244 30.6159 38.6523 31.4851 38.6523Z" stroke="white"/>
</svg>
